solid 
   facet normal 0.000000e+000 -1.000000e+000 0.000000e+000
      outer loop
         vertex 3.313445e+001 -1.700000e+001 1.039640e+002
         vertex -1.700000e+001 -1.700000e+001 5.741350e+001
         vertex 5.626899e+001 -1.700000e+001 7.904824e+001
      endloop
   endfacet
   facet normal 0.000000e+000 -1.000000e+000 0.000000e+000
      outer loop
         vertex -1.700000e+001 -1.700000e+001 5.741350e+001
         vertex 1.700000e+001 -1.700000e+001 4.258650e+001
         vertex 5.626899e+001 -1.700000e+001 7.904824e+001
      endloop
   endfacet
   facet normal 0.000000e+000 -1.000000e+000 0.000000e+000
      outer loop
         vertex 1.700000e+001 -1.700000e+001 4.258650e+001
         vertex -1.700000e+001 -1.700000e+001 5.741350e+001
         vertex 1.700000e+001 -1.700000e+001 0.000000e+000
      endloop
   endfacet
   facet normal 0.000000e+000 -1.000000e+000 0.000000e+000
      outer loop
         vertex 1.700000e+001 -1.700000e+001 0.000000e+000
         vertex -1.700000e+001 -1.700000e+001 5.741350e+001
         vertex -1.700000e+001 -1.700000e+001 0.000000e+000
      endloop
   endfacet
   facet normal -6.804279e-001 0.000000e+000 7.328150e-001
      outer loop
         vertex 3.313445e+001 1.700000e+001 1.039640e+002
         vertex -1.700000e+001 1.700000e+001 5.741350e+001
         vertex 3.313445e+001 -1.700000e+001 1.039640e+002
      endloop
   endfacet
   facet normal -6.804279e-001 0.000000e+000 7.328150e-001
      outer loop
         vertex 3.313445e+001 -1.700000e+001 1.039640e+002
         vertex -1.700000e+001 1.700000e+001 5.741350e+001
         vertex -1.700000e+001 -1.700000e+001 5.741350e+001
      endloop
   endfacet
   facet normal 6.804278e-001 0.000000e+000 -7.328151e-001
      outer loop
         vertex 5.626899e+001 -1.700000e+001 7.904824e+001
         vertex 1.700000e+001 -1.700000e+001 4.258650e+001
         vertex 5.626899e+001 1.700000e+001 7.904824e+001
      endloop
   endfacet
   facet normal 6.804278e-001 0.000000e+000 -7.328151e-001
      outer loop
         vertex 5.626899e+001 1.700000e+001 7.904824e+001
         vertex 1.700000e+001 -1.700000e+001 4.258650e+001
         vertex 1.700000e+001 1.700000e+001 4.258650e+001
      endloop
   endfacet
   facet normal -1.000000e+000 0.000000e+000 0.000000e+000
      outer loop
         vertex -1.700000e+001 1.700000e+001 5.741350e+001
         vertex -1.700000e+001 1.700000e+001 0.000000e+000
         vertex -1.700000e+001 -1.700000e+001 5.741350e+001
      endloop
   endfacet
   facet normal -1.000000e+000 0.000000e+000 0.000000e+000
      outer loop
         vertex -1.700000e+001 1.700000e+001 0.000000e+000
         vertex -1.700000e+001 -1.700000e+001 0.000000e+000
         vertex -1.700000e+001 -1.700000e+001 5.741350e+001
      endloop
   endfacet
   facet normal 1.000000e+000 0.000000e+000 0.000000e+000
      outer loop
         vertex 1.700000e+001 -1.700000e+001 4.258650e+001
         vertex 1.700000e+001 -1.700000e+001 0.000000e+000
         vertex 1.700000e+001 1.700000e+001 4.258650e+001
      endloop
   endfacet
   facet normal 1.000000e+000 0.000000e+000 -0.000000e+000
      outer loop
         vertex 1.700000e+001 -1.700000e+001 0.000000e+000
         vertex 1.700000e+001 1.700000e+001 0.000000e+000
         vertex 1.700000e+001 1.700000e+001 4.258650e+001
      endloop
   endfacet
   facet normal 0.000000e+000 1.000000e+000 0.000000e+000
      outer loop
         vertex 5.626899e+001 1.700000e+001 7.904824e+001
         vertex 1.700000e+001 1.700000e+001 4.258650e+001
         vertex 3.313445e+001 1.700000e+001 1.039640e+002
      endloop
   endfacet
   facet normal 0.000000e+000 1.000000e+000 -0.000000e+000
      outer loop
         vertex 3.313445e+001 1.700000e+001 1.039640e+002
         vertex 1.700000e+001 1.700000e+001 4.258650e+001
         vertex -1.700000e+001 1.700000e+001 5.741350e+001
      endloop
   endfacet
   facet normal 0.000000e+000 1.000000e+000 -0.000000e+000
      outer loop
         vertex 1.700000e+001 1.700000e+001 4.258650e+001
         vertex 1.700000e+001 1.700000e+001 0.000000e+000
         vertex -1.700000e+001 1.700000e+001 5.741350e+001
      endloop
   endfacet
   facet normal 0.000000e+000 1.000000e+000 0.000000e+000
      outer loop
         vertex -1.700000e+001 1.700000e+001 5.741350e+001
         vertex 1.700000e+001 1.700000e+001 0.000000e+000
         vertex -1.700000e+001 1.700000e+001 0.000000e+000
      endloop
   endfacet
   facet normal 7.328151e-001 -0.000000e+000 6.804278e-001
      outer loop
         vertex 3.313445e+001 1.700000e+001 1.039640e+002
         vertex 3.313445e+001 -1.700000e+001 1.039640e+002
         vertex 5.626899e+001 1.700000e+001 7.904824e+001
      endloop
   endfacet
   facet normal 7.328151e-001 0.000000e+000 6.804278e-001
      outer loop
         vertex 5.626899e+001 1.700000e+001 7.904824e+001
         vertex 3.313445e+001 -1.700000e+001 1.039640e+002
         vertex 5.626899e+001 -1.700000e+001 7.904824e+001
      endloop
   endfacet
   facet normal 0.000000e+000 0.000000e+000 -1.000000e+000
      outer loop
         vertex 1.700000e+001 -1.700000e+001 0.000000e+000
         vertex -1.700000e+001 -1.700000e+001 0.000000e+000
         vertex 1.700000e+001 1.700000e+001 0.000000e+000
      endloop
   endfacet
   facet normal 0.000000e+000 0.000000e+000 -1.000000e+000
      outer loop
         vertex -1.700000e+001 -1.700000e+001 0.000000e+000
         vertex -1.700000e+001 1.700000e+001 0.000000e+000
         vertex 1.700000e+001 1.700000e+001 0.000000e+000
      endloop
   endfacet
endsolid
