solid 
   facet normal 5.000000e-001 -8.660254e-001 -2.331468e-017
      outer loop
         vertex -7.771561e-016 -9.237604e+000 5.000000e+001
         vertex -3.108624e-015 -9.237604e+000 0.000000e+000
         vertex 8.000000e+000 -4.618802e+000 4.538120e+001
      endloop
   endfacet
   facet normal 5.000000e-001 -8.660254e-001 0.000000e+000
      outer loop
         vertex -3.108624e-015 -9.237604e+000 0.000000e+000
         vertex 8.000000e+000 -4.618802e+000 0.000000e+000
         vertex 8.000000e+000 -4.618802e+000 4.538120e+001
      endloop
   endfacet
   facet normal 2.500001e-001 8.660253e-001 -4.330129e-001
      outer loop
         vertex 6.219042e+001 4.618802e+000 7.666805e+001
         vertex 8.000000e+000 4.618802e+000 4.538120e+001
         vertex 5.419042e+001 9.237604e+000 8.128685e+001
      endloop
   endfacet
   facet normal 2.500000e-001 8.660254e-001 -4.330127e-001
      outer loop
         vertex 5.419042e+001 9.237604e+000 8.128685e+001
         vertex 8.000000e+000 4.618802e+000 4.538120e+001
         vertex 7.818815e-015 9.237604e+000 5.000000e+001
      endloop
   endfacet
   facet normal -5.000000e-001 0.000000e+000 8.660254e-001
      outer loop
         vertex 4.619042e+001 4.618802e+000 8.590565e+001
         vertex -8.000000e+000 4.618802e+000 5.461880e+001
         vertex 4.619042e+001 -4.618802e+000 8.590565e+001
      endloop
   endfacet
   facet normal -5.000000e-001 0.000000e+000 8.660254e-001
      outer loop
         vertex -8.000000e+000 4.618802e+000 5.461880e+001
         vertex -8.000000e+000 -4.618802e+000 5.461880e+001
         vertex 4.619042e+001 -4.618802e+000 8.590565e+001
      endloop
   endfacet
   facet normal 5.000000e-001 8.660254e-001 -0.000000e+000
      outer loop
         vertex 6.219042e+001 4.618802e+000 1.500000e+002
         vertex 6.219042e+001 4.618802e+000 7.666805e+001
         vertex 5.419042e+001 9.237604e+000 1.500000e+002
      endloop
   endfacet
   facet normal 5.000000e-001 8.660254e-001 0.000000e+000
      outer loop
         vertex 5.419042e+001 9.237604e+000 1.500000e+002
         vertex 6.219042e+001 4.618802e+000 7.666805e+001
         vertex 5.419042e+001 9.237604e+000 8.128685e+001
      endloop
   endfacet
   facet normal -5.000000e-001 -8.660254e-001 0.000000e+000
      outer loop
         vertex -8.000000e+000 -4.618802e+000 5.461880e+001
         vertex -8.000000e+000 -4.618802e+000 0.000000e+000
         vertex -7.771561e-016 -9.237604e+000 5.000000e+001
      endloop
   endfacet
   facet normal -5.000000e-001 -8.660254e-001 2.331468e-017
      outer loop
         vertex -8.000000e+000 -4.618802e+000 0.000000e+000
         vertex -3.108624e-015 -9.237604e+000 0.000000e+000
         vertex -7.771561e-016 -9.237604e+000 5.000000e+001
      endloop
   endfacet
   facet normal -5.000000e-001 8.660254e-001 1.157477e-017
      outer loop
         vertex 7.818815e-015 9.237604e+000 5.000000e+001
         vertex 6.661338e-015 9.237604e+000 0.000000e+000
         vertex -8.000000e+000 4.618802e+000 5.461880e+001
      endloop
   endfacet
   facet normal -5.000000e-001 8.660254e-001 0.000000e+000
      outer loop
         vertex 6.661338e-015 9.237604e+000 0.000000e+000
         vertex -8.000000e+000 4.618802e+000 0.000000e+000
         vertex -8.000000e+000 4.618802e+000 5.461880e+001
      endloop
   endfacet
   facet normal 1.000000e+000 0.000000e+000 0.000000e+000
      outer loop
         vertex 6.219042e+001 -4.618802e+000 1.500000e+002
         vertex 6.219042e+001 -4.618802e+000 7.666805e+001
         vertex 6.219042e+001 4.618802e+000 1.500000e+002
      endloop
   endfacet
   facet normal 1.000000e+000 0.000000e+000 0.000000e+000
      outer loop
         vertex 6.219042e+001 4.618802e+000 1.500000e+002
         vertex 6.219042e+001 -4.618802e+000 7.666805e+001
         vertex 6.219042e+001 4.618802e+000 7.666805e+001
      endloop
   endfacet
   facet normal 5.000000e-001 0.000000e+000 -8.660254e-001
      outer loop
         vertex 6.219042e+001 -4.618802e+000 7.666805e+001
         vertex 8.000000e+000 -4.618802e+000 4.538120e+001
         vertex 6.219042e+001 4.618802e+000 7.666805e+001
      endloop
   endfacet
   facet normal 5.000000e-001 0.000000e+000 -8.660254e-001
      outer loop
         vertex 6.219042e+001 4.618802e+000 7.666805e+001
         vertex 8.000000e+000 -4.618802e+000 4.538120e+001
         vertex 8.000000e+000 4.618802e+000 4.538120e+001
      endloop
   endfacet
   facet normal -2.499999e-001 -8.660255e-001 4.330126e-001
      outer loop
         vertex 4.619042e+001 -4.618802e+000 8.590565e+001
         vertex -8.000000e+000 -4.618802e+000 5.461880e+001
         vertex 5.419042e+001 -9.237604e+000 8.128685e+001
      endloop
   endfacet
   facet normal -2.500000e-001 -8.660254e-001 4.330127e-001
      outer loop
         vertex 5.419042e+001 -9.237604e+000 8.128685e+001
         vertex -8.000000e+000 -4.618802e+000 5.461880e+001
         vertex -7.771561e-016 -9.237604e+000 5.000000e+001
      endloop
   endfacet
   facet normal -5.000000e-001 -8.660254e-001 0.000000e+000
      outer loop
         vertex 4.619042e+001 -4.618802e+000 1.500000e+002
         vertex 4.619042e+001 -4.618802e+000 8.590565e+001
         vertex 5.419042e+001 -9.237604e+000 1.500000e+002
      endloop
   endfacet
   facet normal -5.000000e-001 -8.660254e-001 0.000000e+000
      outer loop
         vertex 5.419042e+001 -9.237604e+000 1.500000e+002
         vertex 4.619042e+001 -4.618802e+000 8.590565e+001
         vertex 5.419042e+001 -9.237604e+000 8.128685e+001
      endloop
   endfacet
   facet normal -1.000000e+000 0.000000e+000 0.000000e+000
      outer loop
         vertex -8.000000e+000 4.618802e+000 5.461880e+001
         vertex -8.000000e+000 4.618802e+000 0.000000e+000
         vertex -8.000000e+000 -4.618802e+000 5.461880e+001
      endloop
   endfacet
   facet normal -1.000000e+000 0.000000e+000 0.000000e+000
      outer loop
         vertex -8.000000e+000 -4.618802e+000 5.461880e+001
         vertex -8.000000e+000 4.618802e+000 0.000000e+000
         vertex -8.000000e+000 -4.618802e+000 0.000000e+000
      endloop
   endfacet
   facet normal -2.499999e-001 8.660255e-001 4.330126e-001
      outer loop
         vertex 5.419042e+001 9.237604e+000 8.128685e+001
         vertex 7.818815e-015 9.237604e+000 5.000000e+001
         vertex 4.619042e+001 4.618802e+000 8.590565e+001
      endloop
   endfacet
   facet normal -2.500000e-001 8.660254e-001 4.330127e-001
      outer loop
         vertex 7.818815e-015 9.237604e+000 5.000000e+001
         vertex -8.000000e+000 4.618802e+000 5.461880e+001
         vertex 4.619042e+001 4.618802e+000 8.590565e+001
      endloop
   endfacet
   facet normal 2.500001e-001 -8.660253e-001 -4.330129e-001
      outer loop
         vertex 5.419042e+001 -9.237604e+000 8.128685e+001
         vertex -7.771561e-016 -9.237604e+000 5.000000e+001
         vertex 6.219042e+001 -4.618802e+000 7.666805e+001
      endloop
   endfacet
   facet normal 2.500000e-001 -8.660254e-001 -4.330127e-001
      outer loop
         vertex -7.771561e-016 -9.237604e+000 5.000000e+001
         vertex 8.000000e+000 -4.618802e+000 4.538120e+001
         vertex 6.219042e+001 -4.618802e+000 7.666805e+001
      endloop
   endfacet
   facet normal -5.000000e-001 8.660254e-001 0.000000e+000
      outer loop
         vertex 5.419042e+001 9.237604e+000 1.500000e+002
         vertex 5.419042e+001 9.237604e+000 8.128685e+001
         vertex 4.619042e+001 4.618802e+000 1.500000e+002
      endloop
   endfacet
   facet normal -5.000000e-001 8.660254e-001 0.000000e+000
      outer loop
         vertex 4.619042e+001 4.618802e+000 1.500000e+002
         vertex 5.419042e+001 9.237604e+000 8.128685e+001
         vertex 4.619042e+001 4.618802e+000 8.590565e+001
      endloop
   endfacet
   facet normal 1.000000e+000 0.000000e+000 0.000000e+000
      outer loop
         vertex 8.000000e+000 -4.618802e+000 4.538120e+001
         vertex 8.000000e+000 -4.618802e+000 0.000000e+000
         vertex 8.000000e+000 4.618802e+000 4.538120e+001
      endloop
   endfacet
   facet normal 1.000000e+000 0.000000e+000 -0.000000e+000
      outer loop
         vertex 8.000000e+000 -4.618802e+000 0.000000e+000
         vertex 8.000000e+000 4.618802e+000 0.000000e+000
         vertex 8.000000e+000 4.618802e+000 4.538120e+001
      endloop
   endfacet
   facet normal 5.000000e-001 8.660254e-001 -0.000000e+000
      outer loop
         vertex 8.000000e+000 4.618802e+000 4.538120e+001
         vertex 8.000000e+000 4.618802e+000 0.000000e+000
         vertex 7.818815e-015 9.237604e+000 5.000000e+001
      endloop
   endfacet
   facet normal 5.000000e-001 8.660254e-001 0.000000e+000
      outer loop
         vertex 7.818815e-015 9.237604e+000 5.000000e+001
         vertex 8.000000e+000 4.618802e+000 0.000000e+000
         vertex 6.661338e-015 9.237604e+000 0.000000e+000
      endloop
   endfacet
   facet normal -1.000000e+000 0.000000e+000 0.000000e+000
      outer loop
         vertex 4.619042e+001 4.618802e+000 1.500000e+002
         vertex 4.619042e+001 4.618802e+000 8.590565e+001
         vertex 4.619042e+001 -4.618802e+000 1.500000e+002
      endloop
   endfacet
   facet normal -1.000000e+000 0.000000e+000 0.000000e+000
      outer loop
         vertex 4.619042e+001 4.618802e+000 8.590565e+001
         vertex 4.619042e+001 -4.618802e+000 8.590565e+001
         vertex 4.619042e+001 -4.618802e+000 1.500000e+002
      endloop
   endfacet
   facet normal 0.000000e+000 0.000000e+000 1.000000e+000
      outer loop
         vertex 4.619042e+001 -4.618802e+000 1.500000e+002
         vertex 5.419042e+001 -9.237604e+000 1.500000e+002
         vertex 4.619042e+001 4.618802e+000 1.500000e+002
      endloop
   endfacet
   facet normal 0.000000e+000 0.000000e+000 1.000000e+000
      outer loop
         vertex 5.419042e+001 -9.237604e+000 1.500000e+002
         vertex 6.219042e+001 -4.618802e+000 1.500000e+002
         vertex 4.619042e+001 4.618802e+000 1.500000e+002
      endloop
   endfacet
   facet normal 0.000000e+000 0.000000e+000 1.000000e+000
      outer loop
         vertex 4.619042e+001 4.618802e+000 1.500000e+002
         vertex 6.219042e+001 -4.618802e+000 1.500000e+002
         vertex 5.419042e+001 9.237604e+000 1.500000e+002
      endloop
   endfacet
   facet normal 0.000000e+000 0.000000e+000 1.000000e+000
      outer loop
         vertex 6.219042e+001 -4.618802e+000 1.500000e+002
         vertex 6.219042e+001 4.618802e+000 1.500000e+002
         vertex 5.419042e+001 9.237604e+000 1.500000e+002
      endloop
   endfacet
   facet normal 0.000000e+000 0.000000e+000 -1.000000e+000
      outer loop
         vertex 8.000000e+000 -4.618802e+000 0.000000e+000
         vertex -3.108624e-015 -9.237604e+000 0.000000e+000
         vertex 8.000000e+000 4.618802e+000 0.000000e+000
      endloop
   endfacet
   facet normal 0.000000e+000 0.000000e+000 -1.000000e+000
      outer loop
         vertex -3.108624e-015 -9.237604e+000 0.000000e+000
         vertex -8.000000e+000 -4.618802e+000 0.000000e+000
         vertex 8.000000e+000 4.618802e+000 0.000000e+000
      endloop
   endfacet
   facet normal 0.000000e+000 0.000000e+000 -1.000000e+000
      outer loop
         vertex 8.000000e+000 4.618802e+000 0.000000e+000
         vertex -8.000000e+000 -4.618802e+000 0.000000e+000
         vertex 6.661338e-015 9.237604e+000 0.000000e+000
      endloop
   endfacet
   facet normal 0.000000e+000 0.000000e+000 -1.000000e+000
      outer loop
         vertex -8.000000e+000 -4.618802e+000 0.000000e+000
         vertex -8.000000e+000 4.618802e+000 0.000000e+000
         vertex 6.661338e-015 9.237604e+000 0.000000e+000
      endloop
   endfacet
   facet normal 5.000000e-001 -8.660254e-001 0.000000e+000
      outer loop
         vertex 5.419042e+001 -9.237604e+000 1.500000e+002
         vertex 5.419042e+001 -9.237604e+000 8.128685e+001
         vertex 6.219042e+001 -4.618802e+000 1.500000e+002
      endloop
   endfacet
   facet normal 5.000000e-001 -8.660254e-001 0.000000e+000
      outer loop
         vertex 6.219042e+001 -4.618802e+000 1.500000e+002
         vertex 5.419042e+001 -9.237604e+000 8.128685e+001
         vertex 6.219042e+001 -4.618802e+000 7.666805e+001
      endloop
   endfacet
endsolid
